<?xml version="1.0" encoding="UTF-8" standalone="no"?>
<!-- Created with Inkscape (http://www.inkscape.org/) -->

<svg
   width="120mm"
   height="120mm"
   viewBox="0 0 120 120"
   version="1.1"
   id="svg1"
   inkscape:version="1.3.2 (091e20e, 2023-11-25, custom)"
   sodipodi:docname="favicon.svg"
   xmlns:inkscape="http://www.inkscape.org/namespaces/inkscape"
   xmlns:sodipodi="http://sodipodi.sourceforge.net/DTD/sodipodi-0.dtd"
   xmlns="http://www.w3.org/2000/svg"
   xmlns:svg="http://www.w3.org/2000/svg">
  <sodipodi:namedview
     id="namedview1"
     pagecolor="#b7b7b7"
     bordercolor="#000000"
     borderopacity="0.25"
     inkscape:showpageshadow="2"
     inkscape:pageopacity="0.0"
     inkscape:pagecheckerboard="0"
     inkscape:deskcolor="#d1d1d1"
     inkscape:document-units="mm"
     inkscape:zoom="0.87060428"
     inkscape:cx="149.32157"
     inkscape:cy="225.7053"
     inkscape:window-width="1536"
     inkscape:window-height="793"
     inkscape:window-x="239"
     inkscape:window-y="1072"
     inkscape:window-maximized="1"
     inkscape:current-layer="layer1" />
  <defs
     id="defs1" />
  <g
     inkscape:label="Camada 1"
     inkscape:groupmode="layer"
     id="layer1">
    <path
       style="font-weight:bold;font-size:128.648px;font-family:BioRhyme;-inkscape-font-specification:'BioRhyme Bold';fill:#38ba47;stroke-width:0.643238;paint-order:markers stroke fill"
       d="M 42.01321,65.668462 V 53.060959 h 25.729599 q 4.116736,0 7.847528,-1.415128 3.859439,-1.415128 6.303751,-4.374032 2.444312,-3.087552 2.444312,-7.71888 0,-4.245383 -2.315664,-6.946991 -2.315664,-2.830256 -6.175103,-4.116736 -3.85944,-1.415128 -8.104824,-1.415128 H 15.254427 V 13.694672 h 51.97379 q 10.163192,0 17.753423,3.087552 7.71888,3.087552 11.835616,8.876712 4.245384,5.78916 4.245384,13.893983 0,8.104824 -4.116736,14.022632 -4.116736,5.78916 -11.706968,9.005359 -7.461583,3.087552 -17.624775,3.087552 z M 15.254427,101.9472 V 88.567805 h 47.47111 V 101.9472 Z M 30.692186,94.485613 V 21.413552 h 16.981536 v 73.072061 z m 68.312086,9.262657 q -5.78916,-0.12865 -11.063728,-2.31567 -5.274568,-2.315659 -9.777247,-7.847523 -4.374032,-5.660511 -7.71888,-15.823703 l -4.888624,-14.022632 13.508039,-1.801071 4.888624,11.449671 q 2.830256,6.561048 5.78916,9.905896 2.958904,3.2162 5.78916,4.374032 2.958904,1.029183 5.274564,1.029183 2.44432,0 3.98809,-0.385944 1.54378,-0.514591 2.95891,-0.900535 l 3.34484,13.508036 q -2.18701,1.28648 -5.40321,2.05837 -3.08755,0.77189 -6.689698,0.77189 z"
       id="text1"
       transform="scale(0.99269318,1.0073606)"
       aria-label="R" />
  </g>
</svg>
